<?xml version="1.0" standalone="no"?>
<!DOCTYPE svg PUBLIC "-//W3C//DTD SVG 20010904//EN"
 "http://www.w3.org/TR/2001/REC-SVG-20010904/DTD/svg10.dtd">
<svg version="1.0" xmlns="http://www.w3.org/2000/svg"
 width="512.000000pt" height="512.000000pt" viewBox="0 0 512.000000 512.000000"
 preserveAspectRatio="xMidYMid meet">

<g transform="translate(0.000000,512.000000) scale(0.100000,-0.100000)"
fill="#000000" stroke="none">
<path d="M0 2560 l0 -2560 2560 0 2560 0 0 2560 0 2560 -2560 0 -2560 0 0
-2560z m1594 2054 c169 -32 290 -90 502 -239 74 -52 139 -95 144 -95 5 0 70
43 144 95 213 150 332 206 506 239 102 20 294 21 392 2 406 -78 734 -385 839
-784 29 -110 36 -309 15 -430 l-16 -93 84 -82 c267 -261 369 -634 276 -1002
-25 -96 -113 -279 -170 -354 -23 -30 -40 -61 -37 -70 2 -9 114 -208 249 -441
135 -234 251 -443 258 -465 19 -56 16 -140 -5 -205 -25 -76 -109 -160 -185
-185 -70 -23 -151 -24 -217 -1 -102 34 -124 63 -397 537 -228 393 -254 434
-276 433 -36 -2 -235 -26 -238 -29 -1 -1 -34 -89 -73 -196 -78 -217 -102 -263
-168 -327 -201 -196 -571 -133 -694 118 -19 39 -67 229 -158 625 -72 314 -132
572 -135 574 -6 6 -9 -5 -124 -544 -61 -286 -118 -546 -127 -578 -57 -207
-276 -344 -491 -308 -127 22 -246 102 -307 205 -25 43 -779 2141 -821 2286
-46 158 -48 374 -4 546 46 180 182 396 326 519 268 227 576 312 908 249z"/>
<path d="M3000 4478 c-146 -11 -289 -66 -437 -166 -139 -93 -183 -125 -183
-133 0 -13 219 -147 340 -208 144 -73 274 -117 409 -138 118 -18 141 -33 141
-87 0 -39 -37 -76 -75 -76 -54 0 -220 35 -318 67 -205 68 -377 166 -738 420
-123 87 -251 175 -284 195 -260 157 -588 171 -860 35 -231 -115 -397 -306
-481 -552 -36 -108 -46 -312 -19 -431 9 -44 195 -578 413 -1188 299 -837 404
-1120 427 -1150 17 -22 53 -54 80 -71 45 -28 55 -30 144 -30 80 0 103 4 137
22 60 32 122 106 139 167 8 28 71 299 140 601 70 303 133 560 141 573 53 81
195 81 248 0 8 -13 72 -271 141 -573 69 -303 132 -573 140 -601 18 -61 80
-136 139 -166 52 -27 159 -35 221 -18 58 16 117 59 149 107 22 33 146 359 146
383 0 6 -12 12 -27 16 -69 14 -194 58 -255 88 -111 56 -179 106 -274 200 -266
268 -363 648 -258 1015 99 344 377 616 729 711 114 31 340 39 456 15 96 -19
184 -48 252 -82 27 -13 51 -22 54 -19 12 11 22 95 23 179 1 327 -188 631 -493
792 -159 84 -325 118 -507 103z m-1846 -257 c12 -13 16 -32 14 -58 -3 -35 -9
-42 -68 -80 -73 -49 -112 -54 -147 -21 -23 21 -29 51 -16 83 3 10 33 35 66 56
69 45 122 52 151 20z m-296 -271 c28 -26 28 -68 1 -121 -31 -61 -59 -184 -59
-259 0 -37 9 -102 20 -146 23 -89 17 -123 -26 -143 -36 -16 -50 -14 -78 12
-61 53 -86 296 -46 451 25 98 67 193 94 212 29 20 69 17 94 -6z"/>
<path d="M3295 3354 c-162 -35 -305 -115 -435 -244 -180 -178 -260 -372 -260
-628 0 -245 91 -454 273 -629 172 -165 370 -243 615 -243 245 0 454 91 628
272 174 182 252 390 241 647 -6 144 -28 233 -83 344 -131 261 -364 436 -648
486 -83 15 -248 12 -331 -5z m384 -95 c276 -70 499 -294 572 -574 29 -111 29
-280 0 -390 -64 -242 -219 -427 -445 -530 -113 -52 -194 -68 -331 -68 -177 1
-316 46 -460 148 -150 106 -263 275 -310 460 -26 100 -24 274 4 380 114 431
539 682 970 574z"/>
<path d="M3325 3114 c-112 -27 -202 -80 -296 -173 -141 -141 -195 -281 -186
-486 7 -171 63 -298 183 -419 73 -72 145 -117 246 -154 66 -25 86 -27 213 -27
126 1 147 3 207 27 97 37 171 84 242 154 119 120 176 252 184 424 8 199 -47
339 -188 480 -95 95 -184 147 -300 174 -81 19 -225 19 -305 0z"/>
<path d="M4090 1654 c-30 -24 -92 -63 -137 -86 l-82 -41 26 -46 c44 -78 35
-78 178 5 72 41 134 79 138 83 6 6 -58 133 -66 130 -1 0 -27 -20 -57 -45z"/>
<path d="M4162 1360 c-73 -42 -135 -80 -138 -83 -11 -10 330 -588 360 -610 40
-29 122 -34 170 -12 58 28 81 68 81 145 l-1 65 -163 280 c-89 154 -166 283
-169 286 -4 4 -67 -28 -140 -71z"/>
</g>
</svg>
