<?xml version="1.0" standalone="no"?>
<!DOCTYPE svg PUBLIC "-//W3C//DTD SVG 20010904//EN"
 "http://www.w3.org/TR/2001/REC-SVG-20010904/DTD/svg10.dtd">
<svg version="1.0" xmlns="http://www.w3.org/2000/svg"
 width="512.000000pt" height="512.000000pt" viewBox="0 0 512.000000 512.000000"
 preserveAspectRatio="xMidYMid meet">

<g transform="translate(0.000000,512.000000) scale(0.100000,-0.100000)"
fill="#000000" stroke="none">
<path d="M0 2560 l0 -2560 2560 0 2560 0 0 2560 0 2560 -2560 0 -2560 0 0
-2560z m2092 2470 c152 -18 284 -67 412 -154 36 -25 69 -46 72 -46 3 0 26 16
52 36 71 54 216 121 317 145 75 19 119 23 265 23 180 0 240 -8 355 -46 280
-95 497 -330 576 -623 17 -63 22 -109 22 -215 1 -121 -8 -190 -80 -651 -60
-379 -86 -527 -102 -556 -61 -121 -275 -230 -575 -295 l-108 -23 5 -39 c8 -59
63 -160 117 -216 l49 -50 190 0 c107 0 202 -5 217 -10 32 -13 53 -38 54 -64 0
-11 -65 -166 -144 -345 -79 -180 -149 -342 -155 -361 -7 -19 -17 -116 -22
-215 -15 -292 -55 -511 -134 -750 -128 -385 -209 -487 -385 -487 -77 0 -125
18 -181 69 -75 68 -81 90 -95 346 -15 265 -34 423 -75 632 -41 211 -54 249
-90 279 -56 48 -151 29 -182 -36 -16 -35 -57 -216 -82 -363 -27 -161 -45 -347
-51 -520 -3 -95 -12 -192 -20 -221 -42 -153 -230 -233 -378 -160 -71 35 -99
69 -157 191 -142 301 -220 627 -238 997 -7 134 -14 199 -29 243 -10 33 -80
198 -156 366 -75 169 -136 318 -136 332 0 14 9 35 19 48 19 24 22 24 229 27
l210 3 52 54 c55 59 108 159 112 214 l3 34 -120 27 c-324 76 -533 193 -574
324 -6 17 -46 268 -91 557 -56 367 -80 553 -80 616 0 450 339 829 790 883 96
11 224 11 322 0z"/>
<path d="M1690 4860 c-224 -59 -420 -228 -504 -436 -32 -77 -56 -197 -56 -275
0 -50 105 -787 125 -876 5 -21 8 -20 98 27 395 206 1224 275 1919 159 246 -41
474 -116 581 -191 16 -11 30 -18 32 -16 2 2 32 182 66 398 69 438 76 552 45
669 -68 252 -245 443 -491 527 -73 26 -95 28 -262 32 -158 3 -192 1 -265 -17
-106 -26 -230 -89 -299 -150 -97 -86 -112 -87 -193 -14 -67 60 -165 116 -261
149 -75 26 -92 28 -270 31 -164 2 -200 0 -265 -17z m160 -219 l0 -78 -54 -6
c-163 -17 -320 -174 -341 -342 l-7 -55 -76 0 -75 0 6 63 c23 244 226 453 472
486 33 5 63 9 68 10 4 0 7 -34 7 -78z"/>
<path d="M2245 3354 c-398 -40 -644 -96 -817 -186 -81 -42 -138 -95 -138 -128
0 -74 199 -178 460 -240 113 -26 110 -27 110 20 0 55 34 139 75 188 22 25 63
54 103 74 l67 33 470 0 470 0 55 -26 c102 -49 174 -147 187 -258 3 -28 11 -51
17 -51 6 0 63 13 127 29 281 72 450 174 420 254 -30 79 -251 177 -524 232
-237 47 -351 57 -707 60 -184 2 -353 1 -375 -1z"/>
<path d="M2090 2938 c-67 -46 -74 -64 -81 -221 -8 -160 -22 -218 -79 -324
l-39 -73 684 0 684 0 -34 56 c-60 99 -76 163 -84 325 -8 162 -19 195 -81 236
l-33 23 -452 0 -452 0 -33 -22z"/>
<path d="M1535 1883 c134 -302 155 -372 155 -515 0 -270 63 -592 167 -858 61
-154 97 -224 129 -249 36 -29 102 -28 139 1 43 34 55 75 55 195 0 217 36 512
96 792 20 91 44 181 54 201 23 45 88 104 137 126 55 23 158 22 213 -3 110 -49
144 -105 189 -313 60 -279 86 -484 97 -766 5 -112 11 -178 21 -196 27 -55 111
-75 169 -39 67 41 201 392 254 666 27 139 38 239 46 412 3 81 12 176 20 209 7
34 67 184 134 333 66 149 120 273 120 276 0 3 -521 5 -1159 5 l-1159 0 123
-277z"/>
</g>
</svg>
