<?xml version="1.0" standalone="no"?>
<!DOCTYPE svg PUBLIC "-//W3C//DTD SVG 20010904//EN"
 "http://www.w3.org/TR/2001/REC-SVG-20010904/DTD/svg10.dtd">
<svg version="1.0" xmlns="http://www.w3.org/2000/svg"
 width="512.000000pt" height="512.000000pt" viewBox="0 0 512.000000 512.000000"
 preserveAspectRatio="xMidYMid meet">

<g transform="translate(0.000000,512.000000) scale(0.100000,-0.100000)"
fill="#000000" stroke="none">
<path d="M0 5083 c0 -37 1 -37 13 -13 7 13 24 30 37 37 24 12 24 13 -12 13
-37 0 -38 -1 -38 -37z"/>
<path d="M111 5113 c10 -2 197 -195 418 -429 383 -406 401 -426 401 -463 0
-25 -7 -44 -20 -56 -11 -10 -20 -23 -20 -29 0 -5 67 -78 150 -161 183 -185
182 -181 83 -285 l-67 -71 216 -217 c119 -119 221 -227 227 -239 23 -46 13
-108 -34 -204 -31 -64 -45 -105 -45 -133 1 -101 76 -180 173 -180 40 -1 82 11
182 51 72 29 136 54 143 55 15 3 75 -132 64 -144 -4 -4 -72 -33 -152 -65 -137
-54 -150 -58 -230 -58 -77 0 -92 3 -152 33 -73 36 -124 87 -160 161 -19 39
-23 62 -23 146 0 98 1 102 44 184 l43 84 -206 206 -206 206 -57 -57 c-69 -67
-96 -82 -131 -73 -16 4 -88 67 -177 156 l-151 150 -24 -26 c-30 -32 -76 -33
-116 -2 -83 61 -273 230 -277 245 -3 9 -5 -864 -6 -1940 l-1 -1958 1523 1
c837 1 1491 5 1452 9 -361 39 -625 298 -576 566 35 186 213 352 448 416 62 17
108 21 223 22 165 1 246 -17 374 -80 l71 -34 170 170 170 170 -48 46 c-39 38
-47 53 -47 83 0 34 29 64 618 653 582 583 619 618 652 618 40 -1 65 -17 79
-51 6 -16 10 424 10 1254 l1 1277 -2512 -1 c-1382 -1 -2506 -3 -2497 -6z
m1870 -363 c48 -10 134 -37 193 -59 158 -59 241 -76 386 -76 146 0 228 17 388
77 151 57 261 78 415 78 193 0 335 -35 503 -124 287 -153 488 -427 549 -749
31 -165 14 -478 -41 -738 -53 -255 -176 -564 -316 -795 l-55 -92 -31 -233
c-18 -129 -32 -239 -32 -244 0 -7 -26 -7 -80 -1 -71 9 -80 12 -80 30 0 12 15
131 34 266 l34 245 73 120 c218 358 349 820 349 1224 0 121 -13 202 -51 316
-43 129 -101 225 -198 327 -191 201 -423 296 -696 285 -130 -6 -200 -21 -358
-81 -153 -57 -230 -71 -407 -71 -179 0 -254 14 -414 74 -177 66 -224 76 -386
76 -120 0 -159 -4 -228 -23 -153 -41 -272 -107 -383 -210 -66 -61 -67 -61
-138 11 l-43 45 43 42 c143 139 334 240 539 284 99 22 326 20 431 -4z m-1061
-1622 c61 -247 164 -489 303 -713 l50 -80 114 -834 c70 -516 120 -847 129
-867 22 -45 61 -83 109 -105 103 -47 237 4 281 108 7 17 74 394 148 837 107
643 140 817 159 860 51 111 159 193 285 216 163 29 339 -63 408 -215 19 -42
45 -175 114 -587 49 -292 88 -533 87 -535 -9 -9 -149 -24 -156 -17 -4 5 -45
234 -90 509 -46 275 -88 518 -94 540 -14 50 -81 118 -132 135 -61 20 -148 9
-198 -26 -81 -57 -76 -36 -223 -919 -74 -443 -141 -824 -150 -847 -40 -102
-131 -189 -236 -224 -77 -25 -208 -16 -281 20 -104 50 -180 148 -205 261 -6
28 -59 406 -118 840 l-107 790 -54 89 c-116 191 -215 418 -278 634 -19 68 -35
127 -35 131 0 7 112 37 147 40 7 1 17 -18 23 -41z"/>
<path d="M170 4393 l0 -432 83 -70 82 -70 202 202 203 202 -63 65 c-35 36
-144 151 -242 255 -98 105 -198 210 -222 235 l-43 45 0 -432z"/>
<path d="M657 3912 c-59 -59 -107 -112 -107 -117 0 -6 48 -59 108 -118 l107
-107 113 113 112 112 -113 113 -112 112 -108 -108z"/>
<path d="M4452 1857 l-492 -492 70 -70 70 -70 425 425 426 426 -3 137 -3 137
-493 -493z"/>
<path d="M5106 2018 c-3 -13 -223 -240 -488 -505 -553 -552 -510 -521 -601
-437 l-49 47 -166 -166 -166 -166 21 -23 c32 -34 71 -118 84 -179 29 -136 -17
-268 -134 -383 -111 -110 -261 -176 -442 -196 -38 -4 386 -8 943 -9 l1012 -1
0 1020 c0 561 -2 1020 -4 1020 -2 0 -6 -10 -10 -22z"/>
<path d="M2968 850 c-237 -38 -408 -180 -408 -340 0 -109 78 -209 211 -273 99
-48 184 -67 300 -67 348 0 600 233 488 452 -46 90 -175 178 -314 213 -77 20
-204 26 -277 15z"/>
</g>
</svg>
