<?xml version="1.0" standalone="no"?>
<!DOCTYPE svg PUBLIC "-//W3C//DTD SVG 20010904//EN"
 "http://www.w3.org/TR/2001/REC-SVG-20010904/DTD/svg10.dtd">
<svg version="1.0" xmlns="http://www.w3.org/2000/svg"
 width="512.000000pt" height="512.000000pt" viewBox="0 0 512.000000 512.000000"
 preserveAspectRatio="xMidYMid meet">

<g transform="translate(0.000000,512.000000) scale(0.100000,-0.100000)"
fill="#000000" stroke="none">
<path d="M0 2560 l0 -2560 2560 0 2560 0 0 2560 0 2560 -2560 0 -2560 0 0
-2560z m1712 1995 c118 -21 269 -67 381 -115 50 -22 99 -40 108 -40 9 0 45 13
80 29 451 204 972 197 1298 -17 149 -98 307 -280 380 -438 l23 -52 352 -122
c193 -67 365 -131 383 -143 18 -12 42 -40 55 -62 l23 -40 0 -515 0 -515 -33
-70 c-128 -270 -401 -539 -684 -673 -100 -47 -227 -92 -262 -92 -34 0 -155 44
-250 92 -43 22 -79 38 -81 36 -7 -8 -37 -181 -65 -383 -51 -355 -96 -502 -207
-666 -127 -187 -257 -255 -413 -215 -83 21 -143 57 -201 117 -116 121 -206
390 -274 819 -15 91 -33 206 -41 255 -14 90 -57 196 -81 203 -16 5 -49 -50
-68 -111 -8 -27 -26 -133 -40 -235 -56 -405 -146 -722 -248 -873 -41 -62 -115
-124 -187 -158 -45 -21 -69 -26 -135 -26 -103 0 -154 23 -242 107 -80 77 -150
190 -204 326 -49 126 -73 232 -94 422 -50 453 -137 718 -335 1025 -86 132
-203 365 -220 436 -11 46 -11 53 7 77 52 70 113 46 150 -59 37 -103 106 -239
184 -360 228 -359 308 -601 369 -1124 31 -270 99 -458 217 -602 124 -153 294
-120 393 76 78 156 143 406 185 706 14 99 32 212 39 252 46 228 207 340 332
230 82 -71 114 -157 144 -382 63 -484 167 -821 284 -921 100 -85 212 -74 305
32 109 124 194 354 221 599 18 171 60 417 86 506 3 10 -9 25 -35 42 -73 48
-189 156 -250 233 -81 101 -125 170 -178 281 l-44 92 3 514 3 513 27 42 c16
23 41 48 57 57 17 8 211 78 433 155 222 77 409 143 416 145 20 7 -58 115 -148
205 -238 239 -587 317 -985 219 -96 -23 -265 -80 -265 -88 0 -3 29 -23 64 -43
129 -76 332 -237 347 -275 18 -49 -36 -112 -85 -99 -14 3 -53 31 -88 61 -166
146 -485 325 -711 399 -212 69 -445 99 -608 77 -217 -29 -363 -93 -501 -220
-160 -148 -261 -332 -303 -554 -16 -83 -19 -292 -6 -384 4 -28 3 -61 -1 -74
-26 -70 -127 -62 -143 11 -14 66 -22 251 -14 350 22 274 129 515 315 710 171
179 334 262 599 306 101 17 348 11 467 -11z"/>
<path d="M3412 3677 c-221 -78 -407 -149 -412 -157 -6 -9 -10 -206 -10 -480
l0 -466 35 -73 c56 -116 123 -209 225 -311 139 -139 321 -256 507 -326 l63
-24 77 31 c312 123 582 356 708 612 l35 72 -2 489 -3 489 -410 143 c-225 79
-410 143 -410 143 0 0 -181 -64 -403 -142z m517 -23 c120 -41 151 -63 151
-108 0 -37 -35 -76 -68 -76 -13 0 -62 14 -109 30 l-85 30 -279 -97 -279 -97 0
-361 0 -361 52 -79 c103 -159 295 -321 457 -385 l54 -21 83 40 c192 92 331
218 438 395 l36 60 0 356 0 356 -53 17 c-64 20 -90 46 -89 88 1 35 17 57 50
70 30 12 199 -43 225 -73 16 -19 17 -54 17 -432 l0 -412 -34 -69 c-104 -217
-329 -415 -589 -520 l-87 -35 -62 24 c-259 97 -461 267 -604 508 l-44 73 0
426 c0 393 1 427 18 442 14 13 659 245 686 246 5 1 57 -15 115 -35z m336 -534
c22 -24 24 -72 4 -96 -8 -10 -115 -105 -239 -211 -199 -170 -229 -193 -260
-193 -31 0 -48 14 -177 143 -132 131 -143 146 -143 179 0 28 7 42 26 57 49 39
68 30 190 -90 l112 -111 199 171 c176 152 202 171 234 171 23 0 42 -7 54 -20z"/>
</g>
</svg>
