<?xml version="1.0" standalone="no"?>
<!DOCTYPE svg PUBLIC "-//W3C//DTD SVG 20010904//EN"
 "http://www.w3.org/TR/2001/REC-SVG-20010904/DTD/svg10.dtd">
<svg version="1.0" xmlns="http://www.w3.org/2000/svg"
 width="512.000000pt" height="512.000000pt" viewBox="0 0 512.000000 512.000000"
 preserveAspectRatio="xMidYMid meet">

<g transform="translate(0.000000,512.000000) scale(0.100000,-0.100000)"
fill="#000000" stroke="none">
<path d="M0 2560 l0 -2560 938 1 c618 1 910 5 857 11 -97 11 -253 63 -330 109
-155 94 -272 226 -360 404 -103 211 -133 356 -145 695 -13 359 -34 506 -90
610 -158 293 -219 457 -267 715 -20 111 -28 370 -14 486 57 490 356 850 798
961 121 31 387 31 506 1 62 -16 77 -18 73 -7 -3 8 -143 252 -311 542 -168 291
-305 536 -305 545 0 8 7 23 16 31 14 15 -47 16 -675 16 l-691 0 0 -2560z"/>
<path d="M1417 5114 c6 -3 165 -272 353 -598 l342 -593 91 -38 c130 -55 208
-75 317 -82 118 -7 228 13 350 64 179 74 233 94 322 118 585 156 1123 -148
1293 -730 121 -416 37 -974 -207 -1375 -81 -133 -103 -258 -118 -652 -7 -199
-14 -287 -30 -363 -104 -496 -399 -807 -810 -854 -46 -5 288 -9 863 -10 l937
-1 0 2560 0 2560 -1857 -1 c-1022 0 -1853 -3 -1846 -5z"/>
<path d="M3387 3930 c-113 -13 -246 -51 -382 -110 -177 -76 -270 -101 -401
-107 -122 -6 -204 5 -322 42 -42 13 -78 23 -79 21 -2 -2 61 -115 140 -252
l144 -249 89 -3 c167 -6 341 33 562 127 157 67 253 91 358 91 145 0 251 -46
347 -149 65 -71 108 -154 138 -266 31 -115 31 -327 0 -483 -34 -177 -79 -292
-182 -472 -112 -195 -169 -477 -169 -835 0 -318 -49 -506 -163 -631 -64 -71
-136 -104 -236 -111 -259 -18 -422 137 -471 445 -6 34 -15 149 -20 255 -13
266 -51 404 -131 471 -53 45 -107 18 -156 -77 -45 -90 -63 -188 -73 -401 -16
-320 -61 -478 -167 -584 -143 -142 -394 -150 -541 -18 -125 114 -182 309 -182
631 0 379 -55 656 -169 855 -100 175 -146 291 -182 463 -30 138 -33 400 -6
497 86 319 344 467 672 384 33 -9 113 -38 177 -65 153 -64 371 -130 385 -115
2 2 -68 131 -158 285 l-162 281 -76 24 c-134 42 -191 50 -341 50 -270 0 -464
-77 -648 -257 -390 -381 -417 -1105 -65 -1729 98 -174 119 -284 133 -678 12
-352 42 -504 136 -693 50 -98 86 -150 163 -231 163 -171 361 -245 625 -233
211 9 370 70 521 198 31 27 60 49 65 49 4 0 41 -27 82 -60 160 -131 333 -190
555 -190 231 0 409 68 558 215 82 80 121 134 175 243 98 195 128 343 140 687
14 386 36 519 110 649 160 279 236 520 262 828 43 519 -174 952 -568 1134
-137 64 -324 92 -487 74z"/>
<path d="M1558 3389 c-165 -24 -291 -151 -334 -336 -10 -43 -16 -115 -16 -193
0 -234 52 -436 162 -635 74 -133 109 -210 135 -303 51 -172 75 -368 75 -601 1
-338 48 -524 157 -621 87 -76 225 -91 339 -35 137 67 189 199 204 520 11 218
15 251 42 359 56 228 200 344 323 260 21 -14 46 -35 57 -47 52 -61 106 -212
122 -342 4 -27 11 -133 16 -235 5 -102 16 -212 24 -245 34 -141 92 -227 184
-272 48 -23 70 -28 137 -28 105 0 181 35 238 110 83 111 106 223 117 580 14
441 56 630 192 866 103 178 160 358 177 557 9 101 0 241 -20 316 -36 134 -126
253 -228 303 -51 26 -66 28 -166 28 -121 -1 -164 -13 -380 -105 -134 -57 -306
-99 -430 -107 -150 -9 -146 0 -69 -133 37 -63 68 -116 69 -118 2 -2 41 20 88
47 90 53 117 61 137 37 27 -33 8 -59 -82 -111 -48 -27 -88 -54 -88 -58 0 -5
25 -53 56 -108 l56 -99 28 15 c16 8 55 31 87 50 63 38 94 43 113 21 27 -34 8
-59 -88 -114 l-92 -54 19 -32 c10 -17 37 -64 60 -104 23 -40 45 -71 49 -69 4
3 44 26 90 52 86 49 123 54 136 19 12 -33 -6 -53 -94 -104 -84 -48 -89 -53
-79 -73 7 -12 54 -95 105 -184 52 -89 94 -173 94 -187 0 -32 -32 -51 -59 -37
-10 6 -65 90 -121 188 -56 98 -105 181 -109 185 -3 4 -46 -15 -94 -42 -98 -56
-122 -61 -139 -26 -16 37 -6 50 74 94 120 67 116 52 49 167 -32 55 -63 99 -70
97 -7 -1 -48 -23 -91 -48 -84 -49 -123 -53 -135 -15 -10 32 5 50 79 90 121 67
116 52 50 166 -31 55 -58 102 -60 104 -1 2 -43 -20 -91 -48 -49 -28 -96 -51
-104 -51 -23 0 -39 21 -39 50 0 22 13 34 90 78 50 29 90 56 90 59 0 3 -37 70
-82 148 l-82 142 -121 22 c-126 23 -248 62 -393 125 -140 60 -257 81 -364 65z"/>
<path d="M2505 190 c-121 -96 -301 -163 -475 -179 -62 -5 123 -8 530 -8 393 0
592 3 535 8 -177 16 -348 79 -471 172 -34 26 -63 47 -65 46 -2 0 -26 -18 -54
-39z"/>
</g>
</svg>
