<?xml version="1.0" standalone="no"?>
<!DOCTYPE svg PUBLIC "-//W3C//DTD SVG 20010904//EN"
 "http://www.w3.org/TR/2001/REC-SVG-20010904/DTD/svg10.dtd">
<svg version="1.0" xmlns="http://www.w3.org/2000/svg"
 width="512.000000pt" height="512.000000pt" viewBox="0 0 512.000000 512.000000"
 preserveAspectRatio="xMidYMid meet">

<g transform="translate(0.000000,512.000000) scale(0.100000,-0.100000)"
fill="#000000" stroke="none">
<path d="M0 2560 l0 -2560 2560 0 2560 0 0 2560 0 2560 -2560 0 -2560 0 0
-2560z m2085 1810 c92 -13 181 -43 285 -95 47 -24 95 -46 107 -50 37 -10 141
14 273 65 321 122 519 115 712 -27 113 -82 221 -256 269 -433 21 -74 24 -107
24 -265 0 -171 -2 -184 -28 -259 -38 -108 -227 -480 -281 -554 -26 -35 -64
-72 -90 -87 l-46 -27 0 -80 c0 -45 -5 -98 -12 -120 -13 -43 -78 -123 -107
-133 -15 -4 -21 -23 -31 -86 -6 -45 -10 -82 -8 -84 2 -1 22 -12 45 -24 101
-51 130 -177 62 -270 -32 -44 -66 -66 -121 -76 -34 -6 -36 -9 -42 -53 -4 -26
-9 -63 -12 -83 -5 -35 -3 -38 34 -59 88 -49 120 -166 72 -260 -25 -49 -53 -71
-107 -85 -53 -14 -52 -11 -77 -148 -43 -232 -175 -331 -441 -330 -159 0 -249
27 -332 98 -44 37 -98 130 -108 188 -7 33 -10 37 -39 37 -66 1 -142 53 -166
115 -16 41 -14 129 4 162 20 40 68 83 102 92 32 9 33 17 19 129 -6 51 -7 52
-41 52 -47 0 -107 32 -140 76 -29 37 -43 117 -30 169 10 40 74 103 117 117 21
6 39 14 39 17 0 14 -41 295 -43 296 -27 11 -83 67 -104 103 -24 40 -28 60 -31
143 l-4 97 -49 31 c-66 44 -127 138 -249 387 -138 282 -145 309 -145 514 1
140 4 178 24 250 66 243 191 415 365 500 112 55 199 68 331 50z"/>
<path d="M1900 4257 c-85 -20 -148 -56 -221 -127 -185 -182 -251 -491 -169
-789 24 -86 203 -454 256 -524 67 -91 23 -87 797 -87 761 0 716 -4 783 74 19
22 84 138 144 257 135 270 155 339 153 539 0 116 -4 147 -27 225 -40 132 -89
219 -171 301 -115 115 -232 156 -391 134 -98 -13 -132 -23 -282 -80 -61 -24
-108 -48 -104 -52 5 -5 51 -19 102 -31 104 -26 128 -45 111 -89 -13 -34 -34
-40 -101 -28 -101 18 -197 57 -385 155 -101 52 -207 101 -237 109 -83 21 -195
27 -258 13z"/>
<path d="M1920 2554 c0 -49 6 -76 22 -105 40 -71 23 -69 620 -69 498 0 536 1
568 18 49 26 70 72 70 155 l0 67 -640 0 -640 0 0 -66z"/>
<path d="M2074 2214 c3 -31 11 -90 18 -131 l11 -75 56 7 c153 18 874 115 877
118 2 1 6 33 10 70 l7 67 -493 0 -493 0 7 -56z"/>
<path d="M2550 1954 c-300 -40 -551 -73 -557 -73 -25 -1 -53 -41 -53 -74 0
-37 34 -77 66 -77 10 0 267 32 569 71 414 54 556 76 574 88 30 21 43 65 29 96
-10 23 -48 46 -71 44 -7 -1 -257 -34 -557 -75z"/>
<path d="M2535 1686 l-380 -51 2 -40 c5 -98 13 -125 36 -125 12 0 188 25 390
55 202 30 371 55 376 55 4 0 12 36 17 80 l10 80 -36 -1 c-19 -1 -206 -25 -415
-53z"/>
<path d="M2526 1406 c-526 -79 -506 -74 -506 -146 0 -53 20 -75 66 -73 22 1
250 34 509 73 342 52 474 75 487 87 22 20 24 80 2 111 -10 15 -25 22 -47 21
-18 -1 -247 -33 -511 -73z"/>
<path d="M2537 1140 c-169 -26 -309 -49 -311 -51 -9 -9 36 -107 65 -142 44
-53 97 -77 194 -87 160 -17 305 22 361 95 30 39 49 98 59 179 l7 56 -33 -1
c-19 -1 -172 -23 -342 -49z"/>
</g>
</svg>
