<?xml version="1.0" standalone="no"?>
<!DOCTYPE svg PUBLIC "-//W3C//DTD SVG 20010904//EN"
 "http://www.w3.org/TR/2001/REC-SVG-20010904/DTD/svg10.dtd">
<svg version="1.0" xmlns="http://www.w3.org/2000/svg"
 width="512.000000pt" height="512.000000pt" viewBox="0 0 512.000000 512.000000"
 preserveAspectRatio="xMidYMid meet">

<g transform="translate(0.000000,512.000000) scale(0.100000,-0.100000)"
fill="#000000" stroke="none">
<path d="M0 2560 l0 -2560 2560 0 2560 0 0 2560 0 2560 -2560 0 -2560 0 0
-2560z m4074 2518 c46 -72 46 -296 1 -488 -38 -164 -34 -206 33 -301 182 -260
192 -277 192 -349 0 -78 -27 -121 -114 -179 -94 -63 -150 -127 -195 -221 -49
-102 -49 -155 1 -270 42 -98 69 -187 100 -326 47 -216 13 -562 -87 -871 -83
-256 -86 -368 -13 -627 52 -189 34 -275 -77 -351 -68 -46 -140 -65 -249 -65
-215 0 -433 57 -1057 276 -259 90 -399 134 -664 208 -250 70 -389 169 -505
360 -54 89 -79 152 -186 466 -107 316 -188 518 -316 780 -99 204 -128 296
-128 406 0 126 54 225 146 269 114 54 239 38 323 -40 62 -58 92 -115 135 -258
46 -150 50 -157 86 -157 46 0 98 61 165 191 141 278 222 349 384 336 42 -3 82
-14 119 -34 49 -24 61 -37 87 -88 29 -56 30 -64 29 -179 0 -75 -11 -191 -28
-305 -14 -102 -23 -188 -19 -192 15 -15 241 -67 421 -98 290 -50 883 -119
1250 -147 l93 -7 -7 39 c-16 93 -64 265 -94 339 -17 44 -38 96 -46 115 -58
151 55 394 245 528 37 25 72 52 79 61 31 38 4 98 -118 261 -103 139 -120 178
-120 270 0 44 10 121 25 185 34 153 40 239 25 357 -13 95 -13 101 5 114 28 21
63 17 79 -8z m376 2 c18 -18 20 -33 20 -139 0 -128 -14 -216 -54 -350 -30 -99
-32 -121 -9 -186 25 -74 268 -371 524 -641 109 -115 142 -172 147 -260 7 -108
-57 -188 -192 -241 -110 -43 -236 -132 -236 -167 0 -8 20 -38 45 -67 54 -64
75 -122 75 -212 0 -57 -6 -81 -32 -136 -34 -71 -118 -168 -177 -203 -20 -12
-37 -23 -39 -24 -2 -1 7 -22 20 -46 20 -37 23 -58 23 -143 0 -93 -2 -105 -33
-165 -18 -36 -55 -92 -84 -125 -101 -119 -107 -165 -44 -378 49 -163 61 -266
46 -370 -41 -279 -247 -468 -580 -531 -98 -19 -282 -21 -432 -4 -192 21 -294
-19 -380 -152 -45 -70 -102 -191 -143 -303 -26 -74 -73 -128 -140 -162 l-59
-30 -1135 0 c-1090 0 -1138 1 -1185 19 -65 25 -124 79 -152 141 -39 83 -33
136 45 412 145 507 202 826 181 1014 -17 148 -43 181 -240 306 -159 101 -170
110 -170 136 0 28 28 57 56 57 33 0 290 -166 355 -230 68 -66 93 -127 110
-261 25 -205 -31 -522 -186 -1064 -36 -125 -65 -244 -65 -264 0 -45 31 -96 79
-128 l34 -23 1124 0 c1218 0 1166 -2 1211 54 11 15 28 51 38 79 26 82 109 251
158 325 48 73 102 117 193 160 53 25 67 27 173 25 521 -7 491 -8 571 14 215
60 352 175 409 344 34 98 25 242 -25 409 -45 152 -55 255 -31 327 9 28 42 80
77 123 139 169 155 289 54 401 -19 22 -35 45 -35 53 0 24 33 53 83 71 63 22
158 111 191 177 48 96 31 177 -56 265 -44 45 -51 57 -51 91 0 95 106 196 283
273 61 26 107 53 129 76 29 31 33 40 28 75 -8 57 -45 109 -192 265 -145 155
-366 418 -426 507 -76 114 -86 207 -39 361 40 130 51 208 49 333 -2 92 0 106
16 118 26 19 52 17 75 -6z m-4228 -2190 c182 -118 400 -217 643 -291 127 -38
165 -61 165 -95 0 -18 -36 -54 -54 -54 -22 0 -292 89 -399 131 -124 50 -276
126 -386 194 -103 64 -131 89 -131 117 0 27 27 58 51 58 10 0 60 -27 111 -60z"/>
<path d="M1971 3753 c-46 -10 -106 -86 -180 -229 -39 -76 -88 -161 -109 -189
-52 -69 -118 -108 -184 -108 -94 -2 -136 47 -184 213 -59 210 -110 273 -219
272 -142 -1 -201 -106 -160 -286 11 -51 42 -129 91 -228 145 -293 232 -508
355 -881 106 -322 178 -456 296 -553 90 -72 174 -109 394 -169 112 -30 296
-87 409 -126 113 -39 311 -106 440 -150 543 -185 818 -223 937 -129 62 48 65
84 24 230 -17 56 -35 135 -42 176 -15 97 -6 288 18 382 l20 72 -21 5 c-12 2
-55 9 -96 15 -41 6 -198 40 -348 75 -151 36 -382 87 -515 115 -328 67 -423 99
-543 185 -113 81 -193 225 -224 402 -17 94 -8 296 20 478 12 77 23 186 24 242
1 89 -2 105 -20 130 -35 47 -112 71 -183 56z"/>
<path d="M2230 2935 c0 -10 5 -47 12 -82 10 -54 16 -67 36 -74 50 -19 233 -61
239 -55 3 3 8 39 11 80 l5 74 -59 12 c-69 14 -205 47 -228 56 -11 4 -16 0 -16
-11z"/>
<path d="M2645 2851 c-6 -10 -9 -151 -3 -157 5 -5 261 -54 265 -51 1 1 5 42 9
90 6 81 5 87 -12 87 -11 0 -72 9 -137 19 -65 10 -119 15 -122 12z"/>
<path d="M3037 2793 c-9 -15 -18 -173 -10 -173 4 0 64 -9 132 -20 92 -15 126
-18 132 -9 4 6 10 35 13 63 4 28 9 65 12 82 l6 31 -109 12 c-59 7 -122 15
-139 18 -18 2 -34 1 -37 -4z"/>
<path d="M3429 2738 c0 -7 -6 -48 -13 -91 -7 -43 -9 -80 -6 -82 4 -3 56 -12
116 -20 83 -11 110 -12 115 -3 11 17 33 177 26 184 -7 7 -136 23 -194 24 -28
0 -43 -4 -44 -12z"/>
<path d="M3786 2698 c-12 -51 -26 -143 -26 -163 0 -21 7 -23 108 -33 59 -6
110 -8 114 -4 4 4 10 51 14 104 6 79 4 98 -7 102 -8 2 -56 7 -106 11 -90 6
-93 5 -97 -17z"/>
<path d="M2320 2641 c0 -18 71 -89 124 -123 l61 -39 7 58 c3 32 5 60 3 62 -8
7 -195 48 -195 42z"/>
<path d="M2625 2514 c-4 -36 -4 -69 1 -74 11 -10 168 -49 214 -52 l35 -3 8 68
c5 38 7 71 4 73 -2 3 -51 13 -108 24 -57 11 -114 22 -126 25 -20 5 -22 0 -28
-61z"/>
<path d="M2994 2435 c-8 -64 -8 -76 6 -79 51 -15 231 -49 235 -45 6 6 36 151
33 155 -3 2 -251 44 -262 44 -1 0 -7 -34 -12 -75z"/>
<path d="M3366 2364 c-10 -47 -16 -87 -14 -88 5 -4 223 -54 225 -52 4 3 43
189 40 192 -2 2 -212 34 -226 34 -5 0 -16 -39 -25 -86z"/>
<path d="M3720 2344 c-6 -33 -16 -76 -21 -97 -6 -20 -8 -41 -5 -46 5 -8 113
-27 186 -33 l35 -3 22 85 c12 47 22 95 22 106 1 24 -11 27 -156 40 l-71 6 -12
-58z"/>
</g>
</svg>
