<?xml version="1.0" standalone="no"?>
<!DOCTYPE svg PUBLIC "-//W3C//DTD SVG 20010904//EN"
 "http://www.w3.org/TR/2001/REC-SVG-20010904/DTD/svg10.dtd">
<svg version="1.0" xmlns="http://www.w3.org/2000/svg"
 width="512.000000pt" height="512.000000pt" viewBox="0 0 512.000000 512.000000"
 preserveAspectRatio="xMidYMid meet">

<g transform="translate(0.000000,512.000000) scale(0.100000,-0.100000)"
fill="#000000" stroke="none">
<path d="M1 4058 c1 -586 5 -1044 9 -1021 5 22 18 60 30 83 21 42 103 130 121
130 5 0 9 102 9 238 0 130 5 278 11 327 68 555 455 1034 985 1218 119 42 237
67 359 77 49 4 -273 8 -717 9 l-808 1 1 -1062z"/>
<path d="M2615 5109 c116 -10 296 -53 410 -98 192 -77 345 -179 500 -335 212
-213 345 -459 407 -755 16 -79 21 -148 25 -382 l5 -285 34 -23 c114 -78 159
-257 99 -389 -32 -70 -84 -125 -150 -160 -46 -24 -62 -27 -191 -30 l-142 -4
-22 -96 c-32 -139 -73 -250 -141 -382 -179 -348 -474 -608 -850 -750 l-87 -33
15 -43 c12 -35 20 -44 46 -50 90 -20 355 -161 381 -203 15 -24 26 -8 26 38 0
72 26 210 56 293 60 165 142 294 267 415 166 161 357 258 579 293 111 18 320
8 428 -20 434 -115 751 -479 799 -920 5 -41 9 823 10 1928 l1 2002 -1302 -1
c-773 -1 -1262 -5 -1203 -10z"/>
<path d="M1496 4950 c-508 -62 -937 -414 -1100 -901 -53 -158 -66 -259 -66
-521 l0 -228 85 0 85 0 0 38 c0 70 30 177 71 262 59 119 170 230 289 289 138
67 280 87 420 57 36 -8 270 -77 520 -154 542 -167 651 -188 747 -141 106 51
132 193 50 274 -18 17 -40 36 -50 42 -18 9 -17 13 13 74 18 35 34 66 36 68 8
9 56 -20 100 -61 58 -53 95 -126 101 -197 l5 -56 122 -72 c136 -81 189 -98
279 -91 162 13 276 142 265 298 -8 112 -89 191 -203 198 -83 6 -129 -11 -182
-66 l-45 -45 -64 31 c-35 18 -64 38 -64 46 0 30 101 125 168 158 62 31 74 33
167 33 87 0 107 -3 157 -27 213 -99 291 -361 168 -561 -30 -48 -30 -49 -11
-75 51 -73 64 -115 69 -219 l5 -103 84 0 85 0 -4 268 c-5 259 -6 271 -36 385
-36 137 -82 249 -149 360 -167 276 -432 487 -728 580 -193 61 -184 60 -775 63
-300 1 -576 -2 -614 -6z"/>
<path d="M1021 3785 c-159 -45 -293 -176 -342 -336 -20 -64 -20 -86 -16 -416
3 -282 7 -362 21 -423 134 -583 560 -996 1141 -1106 124 -24 358 -23 485 1
440 83 813 361 1010 755 58 114 87 195 118 320 24 101 25 119 29 483 3 209 2
389 -1 401 -3 13 -15 34 -25 48 l-20 25 -48 -22 c-93 -45 -201 -55 -312 -29
-62 14 -98 31 -268 130 l-31 18 -49 -51 c-29 -32 -71 -63 -108 -80 -54 -25
-70 -28 -165 -27 -58 1 -134 7 -170 13 -36 7 -276 78 -535 158 -442 137 -476
146 -565 149 -64 3 -113 -1 -149 -11z m312 -340 c93 -39 147 -125 147 -237 l0
-68 -74 0 -73 0 -6 58 c-5 45 -12 62 -32 80 -64 55 -145 6 -145 -89 l0 -49
-81 0 -82 0 7 72 c3 39 15 90 25 112 19 45 77 101 125 122 41 18 145 18 189
-1z m1688 -20 c24 -17 57 -50 74 -74 27 -38 30 -52 34 -127 l3 -84 -75 0 -75
0 -4 55 c-6 70 -35 105 -88 105 -53 0 -82 -35 -88 -105 l-4 -55 -74 0 -74 0 0
61 c0 81 16 130 56 178 53 62 105 83 196 79 66 -3 82 -7 119 -33z m124 -647
c-2 -13 -16 -90 -30 -172 -51 -299 -141 -483 -322 -657 -122 -118 -294 -215
-458 -259 -114 -31 -350 -39 -466 -15 -212 42 -377 127 -527 269 -185 176
-278 362 -327 658 -14 84 -27 163 -30 176 l-5 22 1085 0 1085 0 -5 -22z"/>
<path d="M1170 2637 c0 -16 19 -125 26 -150 5 -15 15 -17 67 -15 l62 3 0 85 0
85 -77 3 c-61 2 -78 0 -78 -11z"/>
<path d="M1484 2637 c-3 -8 -4 -47 -2 -88 l3 -74 85 0 85 0 0 85 0 85 -83 3
c-63 2 -84 0 -88 -11z"/>
<path d="M1814 2637 c-3 -8 -4 -47 -2 -88 l3 -74 85 0 85 0 0 85 0 85 -83 3
c-63 2 -84 0 -88 -11z"/>
<path d="M2144 2637 c-3 -8 -4 -47 -2 -88 l3 -74 85 0 85 0 0 85 0 85 -83 3
c-63 2 -84 0 -88 -11z"/>
<path d="M2474 2637 c-3 -8 -4 -47 -2 -88 l3 -74 85 0 85 0 0 85 0 85 -83 3
c-63 2 -84 0 -88 -11z"/>
<path d="M2804 2637 c-3 -8 -4 -47 -2 -88 l3 -74 62 -3 61 -3 11 50 c6 28 14
69 17 91 l7 40 -77 0 c-55 0 -78 -4 -82 -13z"/>
<path d="M1270 2308 c0 -18 49 -98 102 -165 48 -60 117 -125 185 -172 l32 -22
56 46 c239 195 601 194 840 -1 l57 -46 73 57 c40 30 93 79 118 108 53 62 127
175 127 194 0 11 -136 13 -795 13 -597 0 -795 -3 -795 -12z"/>
<path d="M1994 1980 c-28 -4 -74 -15 -101 -24 -61 -20 -146 -73 -138 -85 3 -5
47 -19 98 -32 128 -31 296 -31 424 0 51 13 95 27 98 32 9 14 -85 68 -155 88
-79 24 -158 31 -226 21z"/>
<path d="M243 3115 c-46 -28 -83 -91 -83 -141 0 -36 31 -103 58 -127 35 -32
93 -46 190 -47 l92 0 0 170 0 170 -107 0 c-97 0 -112 -3 -150 -25z"/>
<path d="M3630 2970 l0 -170 83 0 c145 1 195 22 236 103 31 62 23 122 -21 173
-49 56 -74 64 -193 64 l-105 0 0 -170z"/>
<path d="M1 1478 l-1 -1478 369 0 369 0 6 58 c3 31 11 115 17 187 20 245 65
400 167 569 59 100 208 257 307 325 84 58 235 133 307 152 43 12 49 17 62 55
l14 41 -87 33 c-451 169 -803 533 -950 980 -24 74 -61 222 -61 245 0 2 -64 5
-142 7 -131 3 -147 6 -193 30 -91 47 -155 133 -175 232 -4 23 -8 -624 -9
-1436z"/>
<path d="M3940 1979 c-354 -41 -655 -292 -763 -636 -103 -326 -10 -685 239
-924 85 -81 140 -118 246 -169 132 -63 220 -83 378 -83 94 -1 156 4 202 16
355 88 608 340 695 695 23 92 22 303 0 396 -45 180 -135 335 -270 462 -93 87
-156 129 -274 179 -131 56 -307 81 -453 64z m57 -198 l53 -23 47 23 c42 21 62
24 168 24 117 0 122 -1 180 -33 94 -51 214 -152 256 -212 56 -80 83 -168 82
-265 -1 -71 -9 -104 -71 -295 -72 -219 -91 -302 -93 -400 -2 -151 -113 -263
-262 -262 -147 0 -233 84 -277 270 -10 45 -15 53 -33 50 -17 -2 -26 -19 -47
-90 -33 -114 -71 -167 -145 -204 -187 -91 -385 44 -385 263 0 81 -24 180 -91
378 -47 140 -62 198 -66 261 -13 181 49 299 227 434 129 98 166 111 305 107
78 -3 112 -8 152 -26z"/>
<path d="M3805 1655 c-5 -2 -26 -6 -46 -9 -42 -7 -193 -117 -233 -169 -27 -35
-56 -107 -56 -138 0 -18 10 -19 164 -19 l164 0 7 28 c9 43 42 90 77 112 28 17
51 20 161 20 141 0 166 -7 210 -60 15 -17 29 -46 33 -65 l6 -35 164 0 164 0 0
28 c0 74 -74 167 -203 256 -114 78 -244 68 -336 -28 l-34 -35 -53 49 c-41 36
-66 51 -104 59 -52 11 -67 12 -85 6z"/>
<path d="M3967 1324 c-4 -4 -7 -45 -7 -91 l0 -83 85 0 86 0 -3 88 -3 87 -75 3
c-42 1 -79 0 -83 -4z"/>
<path d="M3500 1153 c0 -4 25 -82 55 -175 44 -132 58 -191 66 -275 15 -150 19
-164 59 -191 26 -18 44 -22 69 -18 54 8 80 42 108 142 29 105 49 135 106 163
57 28 121 27 171 -2 55 -31 73 -60 104 -167 24 -83 31 -97 62 -118 45 -31 94
-25 131 16 22 25 27 42 33 118 9 109 32 212 86 369 22 65 40 125 40 132 0 10
-34 13 -150 13 -146 0 -150 -1 -150 -21 0 -35 -42 -98 -80 -122 -30 -19 -49
-22 -150 -22 -63 0 -127 3 -142 8 -47 13 -97 65 -109 113 l-11 44 -149 0 c-82
0 -149 -3 -149 -7z"/>
<path d="M1754 1297 l-16 -53 31 -62 c37 -73 94 -132 159 -164 69 -34 207 -33
275 2 60 30 127 101 162 171 l27 53 -16 53 -17 54 -62 -8 c-80 -10 -384 -10
-464 0 l-62 8 -17 -54z"/>
<path d="M1523 1116 c-134 -50 -278 -154 -380 -276 -61 -73 -163 -258 -177
-323 l-6 -27 182 2 183 3 -1 92 c-1 78 -6 99 -27 137 l-25 44 54 53 c52 52 54
52 74 34 11 -10 32 -43 48 -74 l27 -56 3 -283 3 -282 582 2 582 3 5 280 5 280
27 56 c16 31 37 64 48 74 20 18 22 18 75 -35 l54 -53 -19 -27 c-27 -38 -42
-106 -38 -180 l3 -65 168 -3 c92 -1 167 1 167 5 0 4 -20 45 -44 92 -24 48 -54
119 -67 160 -21 66 -32 83 -96 147 -39 40 -99 91 -133 114 -70 48 -211 117
-255 125 -28 6 -32 3 -60 -52 -118 -230 -415 -320 -649 -195 -68 36 -165 136
-195 200 -15 31 -31 52 -40 51 -9 0 -44 -10 -78 -23z"/>
<path d="M5107 953 c-12 -148 -79 -333 -171 -472 -171 -257 -468 -438 -771
-470 -53 -6 94 -9 438 -10 l517 -1 0 515 c0 283 -2 515 -4 515 -1 0 -6 -35 -9
-77z"/>
<path d="M926 318 c-3 -7 -7 -46 -10 -86 l-5 -72 207 2 207 3 3 83 3 82 -201
0 c-152 0 -202 -3 -204 -12z"/>
<path d="M2802 248 l3 -83 207 -3 206 -2 -5 62 c-8 120 16 108 -214 108 l-200
0 3 -82z"/>
<path d="M3374 169 c4 -41 9 -95 12 -121 l6 -48 306 1 c221 1 286 4 232 10
-165 18 -326 76 -461 165 -46 31 -88 58 -93 61 -4 3 -5 -27 -2 -68z"/>
</g>
</svg>
