<?xml version="1.0" encoding="UTF-8"?>
<!DOCTYPE svg PUBLIC "-//W3C//DTD SVG 1.1//EN" "http://www.w3.org/Graphics/SVG/1.1/DTD/svg11.dtd">
<svg xmlns="http://www.w3.org/2000/svg" version="1.1" width="512px" height="512px" style="shape-rendering:geometricPrecision; text-rendering:geometricPrecision; image-rendering:optimizeQuality; fill-rule:evenodd; clip-rule:evenodd" xmlns:xlink="http://www.w3.org/1999/xlink">
<g><path style="opacity:0.999" fill="#41a8c4" d="M 419.5,78.5 C 419.062,78.4346 418.728,78.6012 418.5,79C 422.428,83.4358 426.761,87.2692 431.5,90.5C 458.317,121.642 468.317,157.642 461.5,198.5C 466.132,199.328 470.798,199.828 475.5,200C 477.333,200.5 478.5,201.667 479,203.5C 479.929,207.244 479.429,210.744 477.5,214C 470.95,215.42 464.284,215.92 457.5,215.5C 457.02,218.443 456.02,221.11 454.5,223.5C 452.559,225.316 451.892,227.316 452.5,229.5C 444.5,244.835 435,259.168 424,272.5C 413.184,291.612 405.517,311.945 401,333.5C 396.333,337.5 391.667,337.5 387,333.5C 386.015,331.634 385.515,329.634 385.5,327.5C 388.998,305.839 396.164,285.505 407,266.5C 414.279,255.554 421.946,244.888 430,234.5C 433.565,228.537 436.732,222.37 439.5,216C 404.835,215.5 370.168,215.333 335.5,215.5C 335.666,223.507 335.5,231.507 335,239.5C 331.833,252 324,259.833 311.5,263C 274.167,263.667 236.833,263.667 199.5,263C 187,259.833 179.167,252 176,239.5C 175.5,231.507 175.334,223.507 175.5,215.5C 140.832,215.333 106.165,215.5 71.5,216C 74.2684,222.37 77.4351,228.537 81,234.5C 88.6667,245.167 96.3333,255.833 104,266.5C 114.359,284.572 121.359,303.906 125,324.5C 131.333,355.497 137.666,386.497 144,417.5C 147.641,435.308 158.474,445.308 176.5,447.5C 192.359,445.472 202.526,436.805 207,421.5C 208.515,415.107 210.181,408.774 212,402.5C 217.438,396.948 222.438,397.281 227,403.5C 226.701,419.064 222.367,433.397 214,446.5C 197.889,463.652 178.722,468.152 156.5,460C 144.272,454.771 135.772,445.938 131,433.5C 122.129,392.148 113.129,350.815 104,309.5C 100.494,298.822 96.161,288.488 91,278.5C 83,267.167 75,255.833 67,244.5C 61.6986,235.564 57.1986,226.23 53.5,216.5C 47.5275,215.67 41.5275,215.17 35.5,215C 33.6667,214.5 32.5,213.333 32,211.5C 31.0715,207.756 31.5715,204.256 33.5,201C 38.7553,199.931 44.0886,199.097 49.5,198.5C 42.5161,157.253 52.8494,121.086 80.5,90C 90.868,88.2568 94.7013,92.4234 92,102.5C 68.0515,130.621 59.5515,162.954 66.5,199.5C 102.833,199.5 139.167,199.5 175.5,199.5C 175.334,191.493 175.5,183.493 176,175.5C 176.896,170.701 179.063,166.701 182.5,163.5C 184.5,162.167 186.167,160.5 187.5,158.5C 190.701,155.063 194.701,152.896 199.5,152C 236.833,151.333 274.167,151.333 311.5,152C 324,155.167 331.833,163 335,175.5C 335.5,183.493 335.666,191.493 335.5,199.5C 371.833,199.5 408.167,199.5 444.5,199.5C 452.829,142.657 431.829,100.823 381.5,74C 360.323,64.6474 338.323,61.9808 315.5,66C 304.39,68.5921 293.39,71.5921 282.5,75C 269.925,77.3164 257.258,77.9831 244.5,77C 225.699,73.6331 207.032,69.6331 188.5,65C 172.033,62.9516 155.866,64.4516 140,69.5C 132.344,67.5222 130.011,62.8556 133,55.5C 133.903,54.2986 135.069,53.4652 136.5,53C 154.457,47.0786 172.79,45.412 191.5,48C 207.195,51.5071 222.862,55.1737 238.5,59C 250.504,60.9714 262.504,60.9714 274.5,59C 284.335,56.9441 294.001,54.2774 303.5,51C 346.912,41.1747 385.579,50.3414 419.5,78.5 Z M 207.5,167.5 C 239.502,167.333 271.502,167.5 303.5,168C 312.667,169.167 317.833,174.333 319,183.5C 319.667,199.5 319.667,215.5 319,231.5C 317.833,240.667 312.667,245.833 303.5,247C 271.5,247.667 239.5,247.667 207.5,247C 198.333,245.833 193.167,240.667 192,231.5C 191.333,215.5 191.333,199.5 192,183.5C 193.346,174.322 198.513,168.989 207.5,167.5 Z"/></g>
<g><path style="opacity:1" fill="#5ba3b9" d="M 107.5,66.5 C 117.186,65.8807 120.686,70.2141 118,79.5C 115.089,82.5872 111.589,84.5872 107.5,85.5C 99.7254,83.6126 97.5587,78.9459 101,71.5C 103.326,69.9343 105.492,68.2676 107.5,66.5 Z"/></g>
<g><path style="opacity:0.996" fill="#4aa6c1" d="M 166.5,87.5 C 173.887,89.1874 180.887,92.0208 187.5,96C 230.095,114.164 273.095,115.164 316.5,99C 325.07,94.8804 333.736,91.047 342.5,87.5C 350.063,88.7375 352.563,93.0708 350,100.5C 343.194,105.822 335.694,109.989 327.5,113C 271.278,135.201 216.612,131.868 163.5,103C 160.735,100.005 159.902,96.5052 161,92.5C 162.352,90.251 164.185,88.5844 166.5,87.5 Z"/></g>
<g><path style="opacity:0.949" fill="#bfa675" d="M 419.5,78.5 C 423.833,82.1667 427.833,86.1667 431.5,90.5C 426.761,87.2692 422.428,83.4358 418.5,79C 418.728,78.6012 419.062,78.4346 419.5,78.5 Z"/></g>
<g><path style="opacity:0.651" fill="#a7be55" d="M 187.5,158.5 C 186.167,160.5 184.5,162.167 182.5,163.5C 183.167,160.833 184.833,159.167 187.5,158.5 Z"/></g>
<g><path style="opacity:1" fill="#3ca8c4" d="M 227.5,183.5 C 231.257,183.071 234.757,183.737 238,185.5C 239.379,190.036 239.879,194.703 239.5,199.5C 250.167,199.5 260.833,199.5 271.5,199.5C 271.334,195.486 271.501,191.486 272,187.5C 273.529,184.484 276.029,183.151 279.5,183.5C 281.926,183.404 284.093,184.07 286,185.5C 287.379,190.036 287.879,194.703 287.5,199.5C 291.514,199.334 295.514,199.501 299.5,200C 302.516,201.529 303.849,204.029 303.5,207.5C 303.596,209.926 302.93,212.093 301.5,214C 296.964,215.379 292.297,215.879 287.5,215.5C 287.666,219.514 287.499,223.514 287,227.5C 285.471,230.516 282.971,231.849 279.5,231.5C 277.074,231.596 274.907,230.93 273,229.5C 271.621,224.964 271.121,220.297 271.5,215.5C 260.833,215.5 250.167,215.5 239.5,215.5C 239.666,219.514 239.499,223.514 239,227.5C 237.471,230.516 234.971,231.849 231.5,231.5C 229.074,231.596 226.907,230.93 225,229.5C 223.621,224.964 223.121,220.297 223.5,215.5C 219.486,215.666 215.486,215.499 211.5,215C 208.484,213.471 207.151,210.971 207.5,207.5C 207.404,205.074 208.07,202.907 209.5,201C 214.036,199.621 218.703,199.121 223.5,199.5C 223.334,195.486 223.501,191.486 224,187.5C 224.69,185.65 225.856,184.316 227.5,183.5 Z"/></g>
<g><path style="opacity:0.435" fill="#c3d751" d="M 454.5,223.5 C 454.396,225.703 453.73,227.703 452.5,229.5C 451.892,227.316 452.559,225.316 454.5,223.5 Z"/></g>
<g><path style="opacity:0.998" fill="#4ba7c2" d="M 247.5,328.5 C 267.597,326.127 280.764,334.461 287,353.5C 293.021,378.918 299.354,404.251 306,429.5C 318.327,448.934 334.494,452.767 354.5,441C 360.534,435.436 364.367,428.602 366,420.5C 370.128,400.191 374.128,379.858 378,359.5C 378.519,358.484 379.353,357.818 380.5,357.5C 385.18,358.502 389.847,359.502 394.5,360.5C 390.87,383.822 386.37,407.156 381,430.5C 373.019,451.965 357.519,463.298 334.5,464.5C 311.056,463.205 295.556,451.539 288,429.5C 281.873,405.197 275.873,380.863 270,356.5C 265.118,345.76 257.284,342.926 246.5,348C 244.291,349.873 242.458,352.04 241,354.5C 238.663,363.183 236.33,371.849 234,380.5C 229.62,385.343 224.954,385.677 220,381.5C 218.517,378.298 218.183,374.964 219,371.5C 220.922,361.473 223.922,351.806 228,342.5C 233.005,335.649 239.505,330.982 247.5,328.5 Z"/></g>
</svg>
